<svg width="12" height="13" viewBox="0 0 12 13" fill="none" xmlns="http://www.w3.org/2000/svg">
<path fill-rule="evenodd" clip-rule="evenodd" d="M11.6569 10.6052L7.41421 6.36254L11.6569 2.1199C12.0472 1.72957 12.0472 1.09601 11.6569 0.705682C11.2665 0.315359 10.633 0.315359 10.2426 0.705682L6 4.94832L1.75736 0.705682C1.36704 0.315359 0.733469 0.315359 0.343146 0.705682C-0.0471771 1.09601 -0.0471771 1.72957 0.343146 2.1199L4.58579 6.36254L0.343146 10.6052C-0.0478838 10.9962 -0.0471771 11.6291 0.343146 12.0194C0.733469 12.4097 1.36633 12.4104 1.75736 12.0194L6 7.77675L10.2426 12.0194C10.6337 12.4104 11.2665 12.4097 11.6569 12.0194C12.0472 11.6291 12.0479 10.9962 11.6569 10.6052Z" fill="#313037"/>
</svg>
